<?xml version="1.0" encoding="UTF-8"?>
<svg xmlns="http://www.w3.org/2000/svg" xmlns:xlink="http://www.w3.org/1999/xlink" width="2500" height="2500" viewBox="0 0 2500 2500">
<path fill-rule="evenodd" fill="rgb(71.484375%, 83.59375%, 93.359375%)" fill-opacity="1" d="M 403.414062 2068.835938 C 234.449219 2005.316406 -17.148438 1747.460938 104.828125 1551.710938 C 164.160156 1456.488281 292.335938 1410.550781 322.101562 1296.898438 C 351.164062 1185.929688 324.84375 1081.980469 316.59375 971.460938 C 303.855469 800.808594 458.453125 629.140625 587.398438 531.699219 C 738.851562 417.261719 971.769531 545.621094 1156.628906 478.179688 C 1317.691406 419.429688 1453.039062 281 1640.011719 307.980469 C 1725.109375 320.261719 1818.03125 363.261719 1873.980469 429.589844 C 1953.679688 524.070312 1911.519531 649.710938 1964.269531 751.75 C 2053.558594 924.480469 2246.03125 1005.601562 2294.121094 1209.011719 C 2319.050781 1314.511719 2223.800781 1407.871094 2245.359375 1489.96875 C 2269.359375 1581.351562 2399.640625 1606.347656 2423.679688 1709.496094 C 2438.511719 1773.195312 2406.558594 1827.34375 2371.578125 1879.003906 C 2217.089844 2107.191406 1971.960938 2105.519531 1728.210938 2097.648438 L 403.414062 2068.835938 "/>
<path fill-rule="evenodd" fill="rgb(82.421875%, 91.40625%, 98.4375%)" fill-opacity="1" d="M 1248.261719 1837.796875 C 1812.140625 1837.796875 2269.941406 1930.148438 2269.941406 2043.898438 C 2269.941406 2157.648438 1812.140625 2250 1248.261719 2250 C 684.382812 2250 226.582031 2157.648438 226.582031 2043.898438 C 226.582031 1930.148438 684.382812 1837.796875 1248.261719 1837.796875 "/>
<path fill-rule="evenodd" fill="rgb(81.25%, 58.006287%, 34.49707%)" fill-opacity="1" d="M 879.074219 818.351562 C 879.074219 818.351562 890.617188 878.921875 894.691406 880.800781 C 936.996094 900.390625 1133.769531 933.988281 1133.769531 933.988281 C 1133.769531 933.988281 1163.460938 918.050781 1175.25 913.980469 C 1185.121094 910.578125 1203.300781 906.339844 1205.988281 913.488281 C 1210.179688 924.671875 1180.128906 941.308594 1180.128906 941.308594 L 1181.101562 1007.171875 L 794.664062 919.351562 L 801.496094 823.71875 L 879.074219 818.351562 "/>
<path fill-rule="evenodd" fill="rgb(74.804688%, 74.804688%, 74.804688%)" fill-opacity="1" d="M 1654.238281 1776.117188 L 1618.171875 1782.25 C 1618.171875 1782.25 1646.75 1950.4375 1656.320312 2006.738281 C 1657.140625 2011.539062 1659.828125 2015.824219 1663.800781 2018.640625 C 1667.78125 2021.464844 1672.710938 2022.585938 1677.511719 2021.773438 C 1687.429688 2020.085938 1694.109375 2010.675781 1692.421875 2000.753906 C 1682.878906 1944.605469 1654.238281 1776.117188 1654.238281 1776.117188 "/>
<path fill-rule="evenodd" fill="rgb(74.804688%, 74.804688%, 74.804688%)" fill-opacity="1" d="M 1889.558594 1434.109375 L 1852.96875 1434.109375 L 1852.96875 1591.703125 L 1889.558594 1591.703125 L 1889.558594 1434.109375 "/>
<path fill-rule="evenodd" fill="rgb(39.208984%, 40.405273%, 42.700195%)" fill-opacity="1" d="M 1940.320312 1803.023438 C 1934.570312 1800.675781 1928 1801.523438 1923.03125 1805.257812 C 1884.898438 1833.902344 1721.039062 1957.019531 1657.949219 2004.421875 C 1652.859375 2008.242188 1650.21875 2014.503906 1651.039062 2020.808594 C 1651.851562 2027.113281 1655.988281 2032.496094 1661.878906 2034.902344 C 1711.238281 2055.050781 1809.558594 2095.183594 1840.109375 2107.65625 C 1845.859375 2110.003906 1852.421875 2109.15625 1857.390625 2105.425781 C 1895.519531 2076.777344 2059.378906 1953.660156 2122.480469 1906.257812 C 2127.558594 1902.4375 2130.199219 1896.179688 2129.390625 1889.871094 C 2128.570312 1883.566406 2124.429688 1878.183594 2118.539062 1875.78125 C 2069.191406 1855.628906 1970.871094 1815.496094 1940.320312 1803.023438 "/>
<path fill-rule="evenodd" fill="rgb(39.208984%, 40.405273%, 42.700195%)" fill-opacity="1" d="M 1471.25 1420.058594 C 1465.5 1417.710938 1458.929688 1418.558594 1453.960938 1422.289062 C 1417.511719 1449.679688 1266.5 1563.136719 1206.339844 1608.339844 C 1201.25 1612.160156 1198.621094 1618.417969 1199.429688 1624.726562 C 1200.238281 1631.03125 1204.378906 1636.414062 1210.269531 1638.816406 C 1301.628906 1676.113281 1581.890625 1790.523438 1636.5 1812.8125 C 1642.25 1815.160156 1648.820312 1814.316406 1653.789062 1810.582031 C 1690.238281 1783.191406 1841.25 1669.734375 1901.410156 1624.53125 C 1906.5 1620.710938 1909.140625 1614.453125 1908.320312 1608.148438 C 1907.511719 1601.839844 1903.371094 1596.457031 1897.480469 1594.054688 C 1806.121094 1556.757812 1525.859375 1442.351562 1471.25 1420.058594 "/>
<path fill-rule="evenodd" fill="rgb(74.804688%, 74.804688%, 74.804688%)" fill-opacity="1" d="M 1692.261719 2061.816406 L 1692.261719 1985.457031 C 1692.261719 1981.25 1688.839844 1977.835938 1684.640625 1977.835938 C 1680.429688 1977.835938 1677.011719 1981.25 1677.011719 1985.457031 L 1677.011719 2061.816406 C 1677.011719 2066.023438 1680.429688 2069.441406 1684.640625 2069.441406 C 1688.839844 2069.441406 1692.261719 2066.023438 1692.261719 2061.816406 "/>
<path fill-rule="evenodd" fill="rgb(74.804688%, 74.804688%, 74.804688%)" fill-opacity="1" d="M 1690.03125 2067.207031 L 1744.019531 2013.214844 C 1747 2010.238281 1747 2005.40625 1744.019531 2002.433594 C 1741.050781 1999.457031 1736.21875 1999.457031 1733.238281 2002.433594 L 1679.238281 2056.425781 C 1676.269531 2059.402344 1676.269531 2064.234375 1679.238281 2067.207031 C 1682.21875 2070.183594 1687.050781 2070.183594 1690.03125 2067.207031 "/>
<path fill-rule="evenodd" fill="rgb(74.804688%, 74.804688%, 74.804688%)" fill-opacity="1" d="M 1684.640625 2069.441406 L 1761 2069.441406 C 1765.199219 2069.441406 1768.621094 2066.023438 1768.621094 2061.816406 C 1768.621094 2057.609375 1765.199219 2054.195312 1761 2054.195312 L 1684.640625 2054.195312 C 1680.429688 2054.195312 1677.011719 2057.609375 1677.011719 2061.816406 C 1677.011719 2066.023438 1680.429688 2069.441406 1684.640625 2069.441406 "/>
<path fill-rule="evenodd" fill="rgb(74.804688%, 74.804688%, 74.804688%)" fill-opacity="1" d="M 1679.238281 2067.207031 L 1733.238281 2121.203125 C 1736.21875 2124.179688 1741.050781 2124.179688 1744.019531 2121.203125 C 1747 2118.226562 1747 2113.398438 1744.019531 2110.421875 L 1690.03125 2056.425781 C 1687.050781 2053.453125 1682.21875 2053.453125 1679.238281 2056.425781 C 1676.269531 2059.402344 1676.269531 2064.234375 1679.238281 2067.207031 "/>
<path fill-rule="evenodd" fill="rgb(74.804688%, 74.804688%, 74.804688%)" fill-opacity="1" d="M 1677.011719 2061.816406 L 1677.011719 2138.179688 C 1677.011719 2142.386719 1680.429688 2145.800781 1684.640625 2145.800781 C 1688.839844 2145.800781 1692.261719 2142.386719 1692.261719 2138.179688 L 1692.261719 2061.816406 C 1692.261719 2057.609375 1688.839844 2054.195312 1684.640625 2054.195312 C 1680.429688 2054.195312 1677.011719 2057.609375 1677.011719 2061.816406 "/>
<path fill-rule="evenodd" fill="rgb(74.804688%, 74.804688%, 74.804688%)" fill-opacity="1" d="M 1679.238281 2056.425781 L 1625.25 2110.421875 C 1622.28125 2113.398438 1622.28125 2118.226562 1625.25 2121.203125 C 1628.230469 2124.179688 1633.058594 2124.179688 1636.03125 2121.203125 L 1690.03125 2067.207031 C 1693 2064.234375 1693 2059.402344 1690.03125 2056.425781 C 1687.050781 2053.453125 1682.21875 2053.453125 1679.238281 2056.425781 "/>
<path fill-rule="evenodd" fill="rgb(74.804688%, 74.804688%, 74.804688%)" fill-opacity="1" d="M 1684.640625 2054.195312 L 1608.28125 2054.195312 C 1604.070312 2054.195312 1600.648438 2057.609375 1600.648438 2061.816406 C 1600.648438 2066.023438 1604.070312 2069.441406 1608.28125 2069.441406 L 1684.640625 2069.441406 C 1688.839844 2069.441406 1692.261719 2066.023438 1692.261719 2061.816406 C 1692.261719 2057.609375 1688.839844 2054.195312 1684.640625 2054.195312 "/>
<path fill-rule="evenodd" fill="rgb(74.804688%, 74.804688%, 74.804688%)" fill-opacity="1" d="M 1690.03125 2056.425781 L 1636.03125 2002.433594 C 1633.058594 1999.457031 1628.230469 1999.457031 1625.25 2002.433594 C 1622.28125 2005.40625 1622.28125 2010.238281 1625.25 2013.214844 L 1679.238281 2067.207031 C 1682.21875 2070.183594 1687.050781 2070.183594 1690.03125 2067.207031 C 1693 2064.234375 1693 2059.402344 1690.03125 2056.425781 "/>
<path fill-rule="evenodd" fill="rgb(14.501953%, 16.088867%, 19.993591%)" fill-opacity="1" d="M 1684.640625 1969.953125 C 1633.929688 1969.953125 1592.769531 2011.113281 1592.769531 2061.816406 C 1592.769531 2112.519531 1633.929688 2153.683594 1684.640625 2153.683594 C 1735.339844 2153.683594 1776.5 2112.519531 1776.5 2061.816406 C 1776.5 2011.113281 1735.339844 1969.953125 1684.640625 1969.953125 Z M 1684.640625 2003.648438 C 1716.738281 2003.648438 1742.808594 2029.714844 1742.808594 2061.816406 C 1742.808594 2093.921875 1716.738281 2119.988281 1684.640625 2119.988281 C 1652.53125 2119.988281 1626.46875 2093.921875 1626.46875 2061.816406 C 1626.46875 2029.714844 1652.53125 2003.648438 1684.640625 2003.648438 "/>
<path fill-rule="evenodd" fill="rgb(14.501953%, 16.088867%, 19.993591%)" fill-opacity="1" d="M 1684.640625 2041.570312 C 1695.808594 2041.570312 1704.890625 2050.644531 1704.890625 2061.816406 C 1704.890625 2072.992188 1695.808594 2082.066406 1684.640625 2082.066406 C 1673.460938 2082.066406 1664.390625 2072.992188 1664.390625 2061.816406 C 1664.390625 2050.644531 1673.460938 2041.570312 1684.640625 2041.570312 "/>
<path fill-rule="evenodd" fill="rgb(74.804688%, 74.804688%, 74.804688%)" fill-opacity="1" d="M 1381.578125 1127.75 L 1341 964.488281 C 1339.058594 956.679688 1332.691406 950.75 1324.75 949.371094 L 1190.171875 925.96875 C 1179.121094 924.050781 1168.578125 931.46875 1166.660156 942.519531 C 1164.738281 953.570312 1172.148438 964.109375 1183.210938 966.03125 L 1304.738281 987.160156 L 1342.121094 1137.558594 C 1344.828125 1148.449219 1355.871094 1155.089844 1366.761719 1152.378906 C 1377.648438 1149.679688 1384.289062 1138.640625 1381.578125 1127.75 "/>
<path fill-rule="evenodd" fill="rgb(81.25%, 58.006287%, 34.49707%)" fill-opacity="1" d="M 1224.238281 960.53125 C 1222.769531 951.980469 1196.421875 940.359375 1187.011719 938.898438 C 1178.441406 937.570312 1170.851562 946.308594 1167.75 951.761719 C 1164.679688 957.148438 1170.738281 964.421875 1169.671875 969.878906 C 1168.609375 975.289062 1162 974.5 1161.328125 981.570312 C 1160.550781 989.699219 1167.429688 992.390625 1167.109375 996.191406 C 1166.789062 999.988281 1161.050781 1001 1159.398438 1007.289062 C 1155.988281 1020.308594 1188.609375 1034.671875 1198.558594 1035.941406 C 1208.519531 1037.199219 1215.941406 1023.820312 1219.109375 1014.890625 C 1222.320312 1005.828125 1220.179688 990.050781 1221.03125 980.988281 C 1221.71875 973.730469 1225.808594 969.679688 1224.238281 960.53125 "/>
<path fill-rule="evenodd" fill="rgb(74.804688%, 74.804688%, 74.804688%)" fill-opacity="1" d="M 1205.710938 1169.140625 L 1165.128906 1005.878906 C 1163.179688 998.070312 1156.808594 992.140625 1148.878906 990.761719 L 1014.300781 967.359375 C 1003.238281 965.441406 992.707031 972.859375 990.785156 983.910156 C 988.863281 994.960938 996.28125 1005.5 1007.328125 1007.421875 L 1128.859375 1028.550781 C 1138.441406 1067.078125 1166.25 1178.949219 1166.25 1178.949219 C 1168.960938 1189.839844 1179.988281 1196.480469 1190.890625 1193.769531 C 1201.769531 1191.070312 1208.421875 1180.03125 1205.710938 1169.140625 "/>
<path fill-rule="evenodd" fill="rgb(39.208984%, 40.405273%, 42.700195%)" fill-opacity="1" d="M 1138.28125 1122.988281 C 1137.269531 1114.691406 1142.210938 1106.820312 1150.128906 1104.128906 C 1197.589844 1087.96875 1356.339844 1033.941406 1413.339844 1014.539062 C 1418.378906 1012.820312 1423.921875 1013.46875 1428.429688 1016.300781 C 1432.941406 1019.128906 1435.929688 1023.839844 1436.570312 1029.128906 C 1446.21875 1108.449219 1479.488281 1382.011719 1486.398438 1438.789062 C 1487.171875 1445.179688 1484.410156 1451.488281 1479.179688 1455.261719 C 1441.371094 1482.480469 1287.320312 1593.394531 1227.140625 1636.722656 C 1222.078125 1640.371094 1215.460938 1641.074219 1209.730469 1638.566406 C 1204.011719 1636.0625 1200.039062 1630.71875 1199.289062 1624.519531 C 1187 1523.542969 1147.089844 1195.421875 1138.28125 1122.988281 "/>
<path fill-rule="evenodd" fill="rgb(0%, 0%, 0%)" fill-opacity="1" d="M 1992.519531 1889.339844 C 1992.519531 1889.339844 2088.800781 1898.445312 2112.539062 1902.511719 C 2120.789062 1903.921875 2133.441406 1908.648438 2136.449219 1915.683594 C 2140.679688 1925.5625 2133.101562 1935.878906 2126.691406 1940.082031 C 2104.25 1954.800781 2073.449219 1964.308594 2045.699219 1968.867188 C 2011.46875 1974.492188 1948.359375 1985.703125 1924.210938 1977.164062 C 1904.621094 1970.238281 1913.960938 1915.683594 1913.960938 1915.683594 L 1992.519531 1889.339844 "/>
<path fill-rule="evenodd" fill="rgb(0%, 0%, 0%)" fill-opacity="1" d="M 1874.839844 1944.40625 C 1874.839844 1944.40625 1971.121094 1953.515625 1994.871094 1957.582031 C 2003.109375 1958.992188 2015.761719 1963.71875 2018.78125 1970.757812 C 2023 1980.632812 2015.429688 1990.949219 2009.019531 1995.152344 C 1986.570312 2009.871094 1955.769531 2019.378906 1928.019531 2023.941406 C 1893.789062 2029.5625 1830.679688 2040.773438 1806.53125 2032.234375 C 1786.941406 2025.308594 1796.28125 1970.757812 1796.28125 1970.757812 L 1874.839844 1944.40625 "/>
<path fill-rule="evenodd" fill="rgb(92.1875%, 71.875%, 57.617188%)" fill-opacity="1" d="M 1933.480469 1659.527344 L 1992.519531 1889.339844 C 1991.488281 1920.808594 1961.890625 1926.511719 1913.960938 1915.683594 L 1840.769531 1718.566406 L 1933.480469 1659.527344 "/>
<path fill-rule="evenodd" fill="rgb(92.1875%, 71.875%, 57.617188%)" fill-opacity="1" d="M 1815.800781 1714.597656 L 1874.839844 1944.40625 C 1873.808594 1975.878906 1844.210938 1981.582031 1796.28125 1970.757812 L 1723.089844 1773.636719 L 1815.800781 1714.597656 "/>
<path fill-rule="evenodd" fill="rgb(50.584412%, 34.104919%, 20.800781%)" fill-opacity="1" d="M 1708.058594 1447.28125 C 1708.058594 1447.28125 1830.851562 1472.648438 1872.980469 1506.808594 C 1915.101562 1540.960938 1960.800781 1652.207031 1960.800781 1652.207031 C 1909.300781 1725.742188 1806.179688 1765.726562 1688.050781 1785.410156 C 1688.050781 1785.410156 1672.53125 1748.566406 1654.390625 1739.546875 C 1584.371094 1704.738281 1342.429688 1633.351562 1286.011719 1574.628906 C 1233.550781 1520.042969 1289.910156 1414.101562 1289.910156 1414.101562 L 1708.058594 1447.28125 "/>
<path fill-rule="evenodd" fill="rgb(74.804688%, 74.804688%, 74.804688%)" fill-opacity="1" d="M 1649.988281 1498.511719 L 1613.398438 1498.511719 C 1613.398438 1498.511719 1613.398438 1684.035156 1613.398438 1743.148438 C 1613.398438 1753.015625 1621.589844 1761.015625 1631.699219 1761.015625 C 1641.800781 1761.015625 1649.988281 1753.015625 1649.988281 1743.148438 C 1649.988281 1684.035156 1649.988281 1498.511719 1649.988281 1498.511719 "/>
<path fill-rule="evenodd" fill="rgb(14.501953%, 16.088867%, 19.993591%)" fill-opacity="1" d="M 1922.28125 1400.96875 C 1922.929688 1390.929688 1915.308594 1382.261719 1905.269531 1381.609375 L 1546.480469 1358.410156 C 1536.441406 1357.761719 1527.761719 1365.378906 1527.109375 1375.421875 L 1524.761719 1411.789062 C 1524.109375 1421.820312 1531.730469 1430.5 1541.769531 1431.148438 L 1900.570312 1454.351562 C 1910.609375 1455 1919.28125 1447.378906 1919.929688 1437.339844 L 1922.28125 1400.96875 "/>
<path fill-rule="evenodd" fill="rgb(14.501953%, 16.088867%, 19.993591%)" fill-opacity="1" d="M 1717 1456.851562 C 1717.648438 1446.769531 1709.988281 1438.070312 1699.921875 1437.421875 L 1259.46875 1409.101562 C 1249.390625 1408.449219 1240.691406 1416.109375 1240.039062 1426.179688 L 1237.691406 1462.691406 C 1237.039062 1472.769531 1244.699219 1481.46875 1254.769531 1482.121094 L 1695.21875 1510.441406 C 1705.300781 1511.09375 1714.011719 1503.4375 1714.648438 1493.359375 L 1717 1456.851562 "/>
<path fill-rule="evenodd" fill="rgb(92.1875%, 71.875%, 57.617188%)" fill-opacity="1" d="M 1591.929688 1241.378906 L 1597.300781 1310.171875 C 1597.300781 1310.171875 1746.441406 1335.378906 1795.878906 1342.859375 C 1824.980469 1347.269531 1868.589844 1343.011719 1892.980469 1357.011719 C 1915.511719 1369.941406 1951.609375 1416.460938 1944.699219 1430.199219 C 1940.429688 1438.691406 1891.921875 1411.910156 1873.460938 1407.761719 C 1862.671875 1405.328125 1857.339844 1408.730469 1838.328125 1405.320312 C 1821.328125 1402.269531 1815.980469 1394.21875 1807.109375 1393.121094 C 1754.820312 1386.609375 1520.210938 1366.289062 1520.210938 1366.289062 L 1528.011719 1241.859375 L 1591.929688 1241.378906 "/>
<path fill-rule="evenodd" fill="rgb(92.576599%, 71.875%, 33.300781%)" fill-opacity="1" d="M 1379.800781 983.378906 L 1340.160156 1140.378906 L 1355.289062 1355.550781 L 1537.769531 1362.378906 C 1537.769531 1362.378906 1533.058594 1265.289062 1537.769531 1234.550781 C 1540.789062 1214.890625 1555.480469 1203.109375 1560.21875 1166.238281 C 1568.761719 1099.738281 1517.28125 1050.601562 1517.28125 1050.601562 L 1470.648438 973.808594 L 1379.800781 983.378906 "/>
<path fill-rule="evenodd" fill="rgb(92.1875%, 71.875%, 57.617188%)" fill-opacity="1" d="M 1367 1265.769531 C 1367 1265.769531 1363.238281 1323.03125 1375.289062 1325.789062 C 1423.191406 1336.761719 1584.859375 1350.179688 1642.679688 1370.191406 C 1677.25 1382.148438 1708.949219 1420.851562 1722.210938 1445.820312 C 1733.800781 1467.648438 1724.441406 1521.839844 1715.859375 1521.445312 C 1705.5 1520.96875 1707.570312 1476.558594 1707.570312 1476.558594 C 1707.570312 1476.558594 1705.109375 1534.191406 1693.421875 1531.691406 C 1683.160156 1529.496094 1685.609375 1484.359375 1685.609375 1484.359375 C 1685.609375 1484.359375 1676.871094 1541.058594 1664.628906 1540.472656 C 1653.941406 1539.964844 1662.679688 1490.710938 1662.679688 1490.710938 C 1662.679688 1490.710938 1649.691406 1547.996094 1638.28125 1547.304688 C 1627.890625 1546.671875 1637.210938 1500.113281 1634.378906 1492.660156 C 1632.089844 1486.640625 1605.589844 1445.820312 1605.589844 1445.820312 C 1605.589844 1445.820312 1361.46875 1464.03125 1302.109375 1437.03125 C 1254.441406 1415.359375 1249.410156 1283.828125 1249.410156 1283.828125 L 1367 1265.769531 "/>
<path fill-rule="evenodd" fill="rgb(92.576599%, 71.875%, 33.300781%)" fill-opacity="1" d="M 1391.390625 953.011719 C 1391.390625 953.011719 1253.640625 1010.671875 1226.480469 1072.558594 C 1201.960938 1128.410156 1226.480469 1287.238281 1226.480469 1287.238281 C 1278.039062 1306.679688 1328.621094 1303.660156 1378.21875 1277.96875 L 1364.558594 1140.378906 L 1391.390625 953.011719 "/>
<path fill-rule="evenodd" fill="rgb(50.584412%, 53.318787%, 53.318787%)" fill-opacity="1" d="M 1367.980469 779.800781 C 1367.980469 779.800781 1346.640625 698.121094 1442.140625 677.339844 C 1517.761719 660.878906 1549.480469 727.589844 1549.480469 727.589844 C 1549.480469 727.589844 1583.640625 733.28125 1595.839844 771.511719 C 1609.578125 814.570312 1588.269531 853.640625 1592.910156 888.609375 C 1596.230469 913.691406 1609.089844 963.671875 1603.148438 970.089844 C 1591.539062 982.660156 1549.320312 972.039062 1524.109375 969.609375 C 1499.871094 967.261719 1457.75 948.140625 1457.75 948.140625 L 1367.980469 779.800781 "/>
<path fill-rule="evenodd" fill="rgb(92.576599%, 71.875%, 33.300781%)" fill-opacity="1" d="M 1468.488281 961.800781 C 1468.488281 961.800781 1569.101562 1009.511719 1590.46875 1054.5 C 1612.910156 1101.75 1603.148438 1245.28125 1603.148438 1245.28125 C 1571.960938 1253.140625 1539.300781 1254.050781 1504.589844 1245.28125 L 1460.808594 997.960938 L 1468.488281 961.800781 "/>
<path fill-rule="evenodd" fill="rgb(92.1875%, 71.875%, 57.617188%)" fill-opacity="1" d="M 1490.328125 913.71875 L 1404.910156 890.601562 L 1379.800781 983.378906 C 1379.800781 983.378906 1428.421875 1046.640625 1443.558594 1045.039062 C 1458.699219 1043.449219 1470.648438 973.808594 1470.648438 973.808594 L 1490.328125 913.71875 "/>
<path fill-rule="evenodd" fill="rgb(0%, 0%, 0%)" fill-opacity="1" d="M 434.089844 1974.722656 C 434.089844 1974.722656 494.171875 2046.992188 507.769531 2065.964844 C 512.414062 2072.453125 517.066406 2082.457031 515.683594 2088.558594 C 514.300781 2094.65625 506.515625 2103.738281 499.472656 2102.558594 C 476.523438 2098.714844 411.402344 2081.742188 377.980469 2065.476562 C 348.144531 2050.957031 313.820312 2032.136719 308.695312 2011.316406 C 303.574219 1990.5 347.242188 1940.570312 347.242188 1940.570312 L 434.089844 1974.722656 "/>
<path fill-rule="evenodd" fill="rgb(0%, 0%, 0%)" fill-opacity="1" d="M 907.554688 1983.878906 C 907.554688 1983.878906 996.277344 2014.878906 1017.710938 2024.136719 C 1025.03125 2027.300781 1034.171875 2033.484375 1036.128906 2039.421875 C 1038.089844 2045.363281 1036.089844 2057.15625 1029.441406 2059.773438 C 1007.789062 2068.296875 943.234375 2087.292969 906.207031 2090.566406 C 873.15625 2093.488281 834.039062 2095.035156 818.925781 2079.832031 C 803.808594 2064.628906 815.523438 1999.335938 815.523438 1999.335938 L 907.554688 1983.878906 "/>
<path fill-rule="evenodd" fill="rgb(40.405273%, 74.804688%, 63.084412%)" fill-opacity="1" d="M 556.074219 1052.058594 C 556.074219 1052.058594 537.449219 1111.371094 534.117188 1136.46875 C 524.441406 1209.339844 522.414062 1363.730469 500.449219 1484.851562 C 472.800781 1637.328125 339.921875 1941.546875 339.921875 1941.546875 C 368.023438 1965.421875 403.289062 1981.40625 447.753906 1985.945312 C 447.753906 1985.945312 607.546875 1704.578125 653.65625 1605.855469 C 682.386719 1544.34375 712.207031 1392.140625 712.207031 1392.140625 C 712.207031 1392.140625 769.558594 1523.867188 781.003906 1593.167969 C 797.511719 1693.113281 806.863281 2002.046875 806.863281 2002.046875 C 854.78125 2005.054688 892.503906 1998.554688 920.550781 1983.019531 C 920.550781 1983.019531 951.53125 1709.480469 940.066406 1573.164062 C 925.835938 1403.941406 813.695312 1051.570312 813.695312 1051.570312 L 556.074219 1052.058594 "/>
<path fill-rule="evenodd" fill="rgb(40.405273%, 74.804688%, 63.084412%)" fill-opacity="1" d="M 729.285156 554.871094 C 729.285156 554.871094 802.875 560.359375 830.773438 596.828125 C 874.113281 653.488281 897.617188 821.28125 897.617188 821.28125 C 865.527344 838.289062 832.417969 841.589844 798.570312 834.941406 L 729.285156 554.871094 "/>
<path fill-rule="evenodd" fill="rgb(40.405273%, 74.804688%, 63.084412%)" fill-opacity="1" d="M 640.972656 548.039062 L 555.585938 841.769531 L 547.289062 1058.410156 C 631.472656 1096.960938 737.769531 1096.761719 825.894531 1058.410156 C 825.894531 1058.410156 809.953125 870.71875 811.257812 818.351562 C 811.898438 792.53125 828.324219 773.898438 833.699219 744.191406 C 839.101562 714.308594 821.828125 667.910156 804.425781 636.351562 C 787.023438 604.800781 729.285156 554.871094 729.285156 554.871094 L 640.972656 548.039062 "/>
<path fill-rule="evenodd" fill="rgb(81.25%, 58.006287%, 34.49707%)" fill-opacity="1" d="M 680.492188 837.378906 C 680.492188 837.378906 693.554688 881.410156 709.28125 885.679688 C 745.222656 895.441406 975.199219 939.839844 975.199219 939.839844 C 975.199219 939.839844 1008.070312 933.570312 1019.109375 939.839844 C 1038.140625 950.660156 1042.53125 975.460938 1042.53125 975.460938 C 1042.53125 975.460938 1067.78125 987.078125 1067.421875 1000.339844 C 1067.148438 1010.199219 1061.070312 1013.679688 1059.609375 1020.839844 C 1058.179688 1027.851562 1061.660156 1033.710938 1059.121094 1041.328125 C 1055.480469 1052.261719 1051.898438 1050.421875 1050.339844 1054.988281 C 1048.308594 1060.929688 1054.238281 1070 1043.511719 1077.921875 C 1034.648438 1084.460938 993.949219 1074.851562 976.660156 1063.289062 C 954.585938 1048.519531 942.507812 1009.128906 942.507812 1009.128906 C 942.507812 1009.128906 733.105469 1002.859375 674.636719 982.78125 C 635.25 969.25 590.226562 895.441406 590.226562 895.441406 L 680.492188 837.378906 "/>
<path fill-rule="evenodd" fill="rgb(40.405273%, 74.804688%, 63.084412%)" fill-opacity="1" d="M 640.972656 548.039062 C 640.972656 548.039062 546.800781 561.261719 524.359375 653.429688 C 502.046875 745.058594 579.003906 903.25 579.003906 903.25 C 629.226562 891.328125 667.804688 871.058594 696.105469 840.789062 C 660.566406 735.628906 651.0625 644.609375 640.972656 548.039062 "/>
<path fill-rule="evenodd" fill="rgb(26.708984%, 21.604919%, 16.50238%)" fill-opacity="1" d="M 820.214844 378.21875 C 838.707031 299 802.691406 238.589844 732.699219 253.820312 C 640.714844 239.808594 596.433594 261.109375 605.347656 371.898438 C 605.347656 371.898438 605.347656 371.898438 605.347656 372.191406 C 580.902344 375.851562 588.378906 393.589844 580.988281 402.660156 C 574.59375 410.511719 563.011719 410.96875 556.226562 418.871094 C 547.53125 428.988281 551.320312 439.789062 548.898438 451.300781 C 547.402344 458.421875 540.234375 460.511719 538.320312 467.839844 C 536.53125 474.679688 540.859375 479.820312 541.726562 486.609375 C 542.863281 495.488281 525.074219 504.261719 533.277344 516.808594 C 538.34375 524.558594 555.660156 518.339844 566.53125 519.230469 C 573.050781 519.761719 577.554688 525.820312 584.488281 525.578125 C 595.085938 525.199219 599.929688 514.628906 609.398438 512.238281 C 618.988281 509.820312 630.191406 515.589844 639.871094 515.890625 C 649.257812 516.179688 656 507.410156 665.203125 507.949219 C 672.300781 508.371094 678.671875 512.808594 685.519531 514.449219 C 698.03125 517.441406 710.96875 517.429688 723.765625 517.429688 C 740.683594 517.421875 751.53125 517.410156 768.449219 517.179688 C 777.75 517.050781 782.203125 524.121094 791.546875 523.28125 C 798.503906 522.660156 802.816406 515.851562 809.757812 515.890625 C 814.789062 515.921875 821.851562 519.121094 826.910156 518.25 C 834.453125 516.960938 838.324219 509.828125 846.671875 509.800781 C 851.699219 509.769531 865.132812 508.328125 868.296875 502.179688 C 869.714844 499.421875 869.96875 496.109375 869.210938 493.121094 C 867.765625 487.421875 862.097656 484.660156 860.257812 479.199219 C 857.914062 472.261719 861.546875 464.5 856.207031 458.359375 C 851.988281 453.488281 844.195312 453.601562 840.34375 448.339844 C 835.207031 441.320312 843.871094 433.910156 840.34375 426.488281 C 837.414062 420.308594 832.683594 416.949219 828.875 411.609375 C 825.019531 406.199219 826.761719 399.101562 823.875 393.320312 C 820.980469 387.53125 823.898438 383.359375 820.214844 378.21875 "/>
<path fill-rule="evenodd" fill="rgb(81.25%, 58.006287%, 34.49707%)" fill-opacity="1" d="M 729.285156 410.941406 L 640.972656 410.941406 L 640.972656 548.039062 C 640.972656 548.039062 691.90625 599.96875 706.617188 598.75 C 716.457031 597.941406 729.285156 554.871094 729.285156 554.871094 L 729.285156 410.941406 "/>
<path fill-rule="evenodd" fill="rgb(81.25%, 58.006287%, 34.49707%)" fill-opacity="1" d="M 652.171875 367.820312 C 706.375 367.121094 736.160156 318.109375 736.160156 318.109375 C 757.871094 337.289062 783.207031 354.71875 813.796875 369.589844 C 813.796875 369.589844 815.242188 394.148438 812.488281 425.53125 C 806.445312 494.449219 765.132812 541.050781 717.988281 536.320312 C 675.441406 532.058594 644.679688 483 644.160156 422.871094 C 639.492188 422.820312 634.742188 421.660156 630.316406 419.269531 C 616.21875 411.648438 610.753906 394.410156 618.113281 380.789062 C 624.65625 368.679688 639.136719 363.488281 652.171875 367.820312 "/>
<path fill-rule="evenodd" fill="rgb(92.1875%, 71.875%, 57.617188%)" fill-opacity="1" d="M 1364.839844 920.980469 C 1356.148438 895.71875 1325.589844 882.679688 1352.789062 797.578125 C 1358.679688 779.148438 1380.511719 750.78125 1380.511719 750.78125 C 1427.621094 776.871094 1474.730469 779.261719 1521.839844 769.460938 C 1517.210938 800.671875 1516.230469 829.539062 1529.160156 849.5 C 1529.160156 849.5 1551.640625 835.441406 1564.039062 846.441406 C 1576.660156 857.640625 1576.910156 874.210938 1567.210938 885 C 1556.890625 896.480469 1539.199219 901.449219 1524.679688 895.589844 C 1494.929688 960.328125 1430.101562 944.949219 1403.949219 948.609375 C 1388.140625 950.828125 1370.039062 936.070312 1364.839844 920.980469 "/>
<path fill-rule="evenodd" fill="rgb(74.804688%, 74.804688%, 74.804688%)" fill-opacity="1" d="M 1342.230469 1857.957031 L 1342.230469 1587.847656 C 1342.230469 1579.605469 1335.539062 1572.917969 1327.289062 1572.917969 C 1319.050781 1572.917969 1312.359375 1579.605469 1312.359375 1587.847656 L 1312.359375 1857.957031 C 1312.359375 1866.199219 1319.050781 1872.890625 1327.289062 1872.890625 C 1335.539062 1872.890625 1342.230469 1866.199219 1342.230469 1857.957031 "/>
<path fill-rule="evenodd" fill="rgb(74.804688%, 74.804688%, 74.804688%)" fill-opacity="1" d="M 1337.851562 1868.515625 L 1528.851562 1677.523438 C 1534.679688 1671.691406 1534.679688 1662.230469 1528.851562 1656.402344 C 1523.019531 1650.574219 1513.558594 1650.574219 1507.730469 1656.402344 L 1316.738281 1847.398438 C 1310.910156 1853.226562 1310.910156 1862.691406 1316.738281 1868.515625 C 1322.558594 1874.34375 1332.03125 1874.34375 1337.851562 1868.515625 "/>
<path fill-rule="evenodd" fill="rgb(74.804688%, 74.804688%, 74.804688%)" fill-opacity="1" d="M 1327.289062 1872.890625 L 1597.398438 1872.890625 C 1605.640625 1872.890625 1612.339844 1866.199219 1612.339844 1857.957031 C 1612.339844 1849.71875 1605.640625 1843.023438 1597.398438 1843.023438 L 1327.289062 1843.023438 C 1319.050781 1843.023438 1312.359375 1849.71875 1312.359375 1857.957031 C 1312.359375 1866.199219 1319.050781 1872.890625 1327.289062 1872.890625 "/>
<path fill-rule="evenodd" fill="rgb(74.804688%, 74.804688%, 74.804688%)" fill-opacity="1" d="M 1316.738281 1868.515625 L 1507.730469 2059.511719 C 1513.558594 2065.34375 1523.019531 2065.34375 1528.851562 2059.511719 C 1534.679688 2053.683594 1534.679688 2044.222656 1528.851562 2038.394531 L 1337.851562 1847.398438 C 1332.03125 1841.570312 1322.558594 1841.570312 1316.738281 1847.398438 C 1310.910156 1853.226562 1310.910156 1862.691406 1316.738281 1868.515625 "/>
<path fill-rule="evenodd" fill="rgb(74.804688%, 74.804688%, 74.804688%)" fill-opacity="1" d="M 1312.359375 1857.957031 L 1312.359375 2128.066406 C 1312.359375 2136.308594 1319.050781 2143 1327.289062 2143 C 1335.539062 2143 1342.230469 2136.308594 1342.230469 2128.066406 L 1342.230469 1857.957031 C 1342.230469 1849.71875 1335.539062 1843.023438 1327.289062 1843.023438 C 1319.050781 1843.023438 1312.359375 1849.71875 1312.359375 1857.957031 "/>
<path fill-rule="evenodd" fill="rgb(74.804688%, 74.804688%, 74.804688%)" fill-opacity="1" d="M 1316.738281 1847.398438 L 1125.738281 2038.394531 C 1119.910156 2044.222656 1119.910156 2053.683594 1125.738281 2059.511719 C 1131.558594 2065.34375 1141.03125 2065.34375 1146.859375 2059.511719 L 1337.851562 1868.515625 C 1343.679688 1862.691406 1343.679688 1853.226562 1337.851562 1847.398438 C 1332.03125 1841.570312 1322.558594 1841.570312 1316.738281 1847.398438 "/>
<path fill-rule="evenodd" fill="rgb(74.804688%, 74.804688%, 74.804688%)" fill-opacity="1" d="M 1327.289062 1843.023438 L 1057.179688 1843.023438 C 1048.941406 1843.023438 1042.25 1849.71875 1042.25 1857.957031 C 1042.25 1866.199219 1048.941406 1872.890625 1057.179688 1872.890625 L 1327.289062 1872.890625 C 1335.539062 1872.890625 1342.230469 1866.199219 1342.230469 1857.957031 C 1342.230469 1849.71875 1335.539062 1843.023438 1327.289062 1843.023438 "/>
<path fill-rule="evenodd" fill="rgb(74.804688%, 74.804688%, 74.804688%)" fill-opacity="1" d="M 1337.851562 1847.398438 L 1146.859375 1656.402344 C 1141.03125 1650.574219 1131.558594 1650.574219 1125.738281 1656.402344 C 1119.910156 1662.230469 1119.910156 1671.691406 1125.738281 1677.523438 L 1316.738281 1868.515625 C 1322.558594 1874.34375 1332.03125 1874.34375 1337.851562 1868.515625 C 1343.679688 1862.691406 1343.679688 1853.226562 1337.851562 1847.398438 "/>
<path fill-rule="evenodd" fill="rgb(14.501953%, 16.088867%, 19.993591%)" fill-opacity="1" d="M 1327.289062 1562.230469 C 1490.511719 1562.230469 1623.019531 1694.742188 1623.019531 1857.957031 C 1623.019531 2021.175781 1490.511719 2153.683594 1327.289062 2153.683594 C 1164.078125 2153.683594 1031.570312 2021.175781 1031.570312 1857.957031 C 1031.570312 1694.742188 1164.078125 1562.230469 1327.289062 1562.230469 Z M 1327.289062 1622.957031 C 1197.589844 1622.957031 1092.289062 1728.257812 1092.289062 1857.957031 C 1092.289062 1987.65625 1197.589844 2092.957031 1327.289062 2092.957031 C 1456.988281 2092.957031 1562.289062 1987.65625 1562.289062 1857.957031 C 1562.289062 1728.257812 1456.988281 1622.957031 1327.289062 1622.957031 "/>
<path fill-rule="evenodd" fill="rgb(14.501953%, 16.088867%, 19.993591%)" fill-opacity="1" d="M 1330.371094 1800.667969 C 1361.988281 1802.363281 1386.28125 1829.410156 1384.589844 1861.03125 C 1382.890625 1892.648438 1355.839844 1916.945312 1324.21875 1915.25 C 1292.601562 1913.554688 1268.308594 1886.507812 1270 1854.886719 C 1271.699219 1823.265625 1298.738281 1798.972656 1330.371094 1800.667969 "/>
<path fill-rule="evenodd" fill="rgb(14.501953%, 16.088867%, 19.993591%)" fill-opacity="1" d="M 1462.5 799.910156 C 1466.039062 801.199219 1467.441406 806.261719 1465.628906 811.191406 C 1463.808594 816.121094 1459.46875 819.058594 1455.929688 817.761719 C 1452.390625 816.460938 1450.988281 811.410156 1452.808594 806.480469 C 1454.621094 801.550781 1458.960938 798.601562 1462.5 799.910156 "/>
<path fill-rule="evenodd" fill="rgb(14.501953%, 16.088867%, 19.993591%)" fill-opacity="1" d="M 1404.808594 786.871094 C 1408.351562 788.171875 1409.75 793.230469 1407.941406 798.160156 C 1406.128906 803.078125 1401.789062 806.03125 1398.25 804.730469 C 1394.710938 803.429688 1393.308594 798.371094 1395.121094 793.441406 C 1396.929688 788.511719 1401.269531 785.570312 1404.808594 786.871094 "/>
<path fill-rule="evenodd" fill="rgb(52.929688%, 34.104919%, 15.306091%)" fill-opacity="1" d="M 887.136719 881.570312 C 882.015625 884.839844 875.996094 886.429688 869.148438 886.539062 C 866.90625 886.570312 865.109375 888.421875 865.144531 890.660156 C 865.179688 892.910156 867.03125 894.699219 869.273438 894.671875 C 877.746094 894.539062 885.171875 892.46875 891.511719 888.429688 C 893.402344 887.21875 893.957031 884.710938 892.75 882.820312 C 891.546875 880.921875 889.03125 880.371094 887.136719 881.570312 "/>
<path fill-rule="evenodd" fill="rgb(23.509216%, 55.271912%, 43.505859%)" fill-opacity="1" d="M 706.878906 607.011719 L 755.671875 656.289062 C 757.25 657.890625 759.824219 657.898438 761.421875 656.320312 C 763.015625 654.738281 763.027344 652.160156 761.449219 650.570312 L 712.65625 601.289062 C 711.078125 599.691406 708.5 599.679688 706.90625 601.261719 C 705.3125 602.839844 705.300781 605.421875 706.878906 607.011719 "/>
<path fill-rule="evenodd" fill="rgb(23.509216%, 55.271912%, 43.505859%)" fill-opacity="1" d="M 613.242188 572.898438 L 735.222656 692.441406 C 736.824219 694.011719 739.402344 693.988281 740.972656 692.378906 C 742.542969 690.78125 742.515625 688.199219 740.914062 686.628906 L 618.933594 567.089844 C 617.328125 565.519531 614.753906 565.550781 613.183594 567.148438 C 611.613281 568.75 611.636719 571.328125 613.242188 572.898438 "/>
<path fill-rule="evenodd" fill="rgb(23.509216%, 55.271912%, 43.505859%)" fill-opacity="1" d="M 732.988281 622.910156 L 756.894531 570.210938 C 757.824219 568.171875 756.914062 565.761719 754.871094 564.828125 C 752.828125 563.898438 750.417969 564.808594 749.488281 566.851562 L 725.582031 619.550781 C 724.65625 621.589844 725.5625 624 727.605469 624.929688 C 729.648438 625.859375 732.058594 624.949219 732.988281 622.910156 "/>
<path fill-rule="evenodd" fill="rgb(23.509216%, 55.271912%, 43.505859%)" fill-opacity="1" d="M 557.234375 854.148438 L 580.164062 905.871094 C 580.996094 907.738281 583.089844 908.710938 585.046875 908.121094 C 625.691406 895.96875 662.953125 874.808594 697.679688 846.890625 C 699.078125 845.761719 699.574219 843.851562 698.894531 842.191406 L 654.007812 731.921875 C 653.160156 729.839844 650.785156 728.839844 648.707031 729.691406 C 646.628906 730.53125 645.628906 732.910156 646.476562 734.980469 L 690.21875 842.441406 C 657.996094 867.96875 623.550781 887.570312 586.140625 899.28125 L 564.667969 850.859375 C 563.761719 848.800781 561.355469 847.878906 559.304688 848.789062 C 557.253906 849.699219 556.324219 852.101562 557.234375 854.148438 "/>
<path fill-rule="evenodd" fill="rgb(23.509216%, 55.271912%, 43.505859%)" fill-opacity="1" d="M 796.925781 641.671875 C 796.925781 641.671875 829.714844 703.398438 826.234375 744.820312 C 824.816406 761.648438 819.226562 771.621094 814.195312 779.839844 C 810.453125 785.949219 807.039062 791.21875 805.382812 797.269531 C 802.359375 808.289062 805.269531 831.558594 805.269531 831.558594 C 805.5625 833.78125 807.601562 835.359375 809.828125 835.070312 C 812.054688 834.78125 813.625 832.738281 813.335938 830.511719 C 813.335938 830.511719 810.484375 809.410156 813.226562 799.421875 C 814.691406 794.078125 817.824219 789.480469 821.128906 784.078125 C 826.671875 775.03125 832.78125 764.03125 834.335938 745.5 C 837.964844 702.320312 804.117188 637.871094 804.117188 637.871094 C 803.070312 635.890625 800.605469 635.128906 798.621094 636.171875 C 796.636719 637.21875 795.878906 639.679688 796.925781 641.671875 "/>
<path fill-rule="evenodd" fill="rgb(23.509216%, 55.271912%, 43.505859%)" fill-opacity="1" d="M 556.199219 1070.539062 C 637.253906 1098.800781 722.351562 1097.511719 810.492188 1070.589844 C 812.636719 1069.941406 813.847656 1067.660156 813.191406 1065.511719 C 812.539062 1063.371094 810.261719 1062.160156 808.117188 1062.808594 C 721.726562 1089.191406 638.320312 1090.558594 558.875 1062.859375 C 556.757812 1062.121094 554.4375 1063.238281 553.695312 1065.359375 C 552.957031 1067.480469 554.078125 1069.800781 556.199219 1070.539062 "/>
<path fill-rule="evenodd" fill="rgb(23.509216%, 55.271912%, 43.505859%)" fill-opacity="1" d="M 721.125 1388.710938 C 728.085938 1329.339844 739.523438 1294.078125 755.136719 1241.558594 C 755.777344 1239.410156 754.550781 1237.140625 752.398438 1236.5 C 750.25 1235.859375 747.984375 1237.089844 747.34375 1239.238281 C 731.585938 1292.25 720.074219 1327.839844 713.046875 1387.769531 C 712.789062 1390 714.386719 1392.019531 716.613281 1392.28125 C 718.84375 1392.539062 720.863281 1390.941406 721.125 1388.710938 "/>
<path fill-rule="evenodd" fill="rgb(23.509216%, 55.271912%, 43.505859%)" fill-opacity="1" d="M 373.398438 1911.953125 C 396.957031 1931.941406 422.851562 1940.707031 450.960938 1938.773438 C 453.199219 1938.617188 454.890625 1936.671875 454.738281 1934.433594 C 454.582031 1932.195312 452.640625 1930.503906 450.402344 1930.65625 C 424.390625 1932.449219 400.457031 1924.246094 378.660156 1905.753906 C 376.949219 1904.300781 374.382812 1904.511719 372.929688 1906.222656 C 371.476562 1907.933594 371.6875 1910.503906 373.398438 1911.953125 "/>
<path fill-rule="evenodd" fill="rgb(23.509216%, 55.271912%, 43.505859%)" fill-opacity="1" d="M 591.769531 1586.414062 C 551.289062 1698.03125 498.332031 1804.371094 435.984375 1906.738281 C 434.820312 1908.65625 435.429688 1911.160156 437.34375 1912.328125 C 439.261719 1913.496094 441.765625 1912.886719 442.929688 1910.96875 C 505.5625 1808.136719 558.753906 1701.3125 599.414062 1589.1875 C 600.179688 1587.078125 599.089844 1584.746094 596.980469 1583.980469 C 594.871094 1583.21875 592.535156 1584.308594 591.769531 1586.414062 "/>
<path fill-rule="evenodd" fill="rgb(23.509216%, 55.271912%, 43.505859%)" fill-opacity="1" d="M 822.554688 1946.078125 C 854.609375 1949.320312 883.25 1946.804688 907.835938 1937.542969 C 909.933594 1936.753906 910.996094 1934.40625 910.203125 1932.304688 C 909.414062 1930.203125 907.066406 1929.140625 904.964844 1929.933594 C 881.449219 1938.796875 854.035156 1941.089844 823.375 1937.988281 C 821.144531 1937.761719 819.144531 1939.390625 818.921875 1941.625 C 818.695312 1943.855469 820.324219 1945.851562 822.554688 1946.078125 "/>
<path fill-rule="evenodd" fill="rgb(23.509216%, 55.271912%, 43.505859%)" fill-opacity="1" d="M 905.269531 1615.867188 C 911.421875 1713.554688 904.195312 1804.386719 893.09375 1893.226562 C 892.816406 1895.453125 894.398438 1897.484375 896.625 1897.761719 C 898.851562 1898.042969 900.886719 1896.460938 901.164062 1894.234375 C 912.324219 1804.90625 919.570312 1713.578125 913.386719 1615.359375 C 913.246094 1613.117188 911.3125 1611.414062 909.070312 1611.554688 C 906.832031 1611.695312 905.128906 1613.628906 905.269531 1615.867188 "/>
<path fill-rule="evenodd" fill="rgb(52.929688%, 34.104919%, 15.306091%)" fill-opacity="1" d="M 819.679688 916.488281 L 975.816406 949.671875 C 976.476562 949.808594 977.164062 949.789062 977.8125 949.601562 C 995.539062 944.359375 1008.21875 945.300781 1017.699219 950.539062 C 1027.191406 955.78125 1033.371094 965.179688 1038.339844 976.160156 C 1039.269531 978.210938 1041.679688 979.109375 1043.71875 978.191406 C 1045.769531 977.261719 1046.671875 974.851562 1045.75 972.808594 C 1040 960.121094 1032.601562 949.480469 1021.628906 943.421875 C 1010.839844 937.460938 996.488281 935.800781 976.507812 941.511719 C 976.507812 941.511719 821.371094 908.539062 821.371094 908.539062 C 819.175781 908.070312 817.015625 909.480469 816.550781 911.671875 C 816.082031 913.871094 817.484375 916.03125 819.679688 916.488281 "/>
<path fill-rule="evenodd" fill="rgb(52.929688%, 34.104919%, 15.306091%)" fill-opacity="1" d="M 1006.46875 972.671875 C 1026.128906 974.820312 1043.808594 980.601562 1057.878906 993.128906 C 1059.550781 994.628906 1062.128906 994.480469 1063.621094 992.800781 C 1065.109375 991.128906 1064.960938 988.558594 1063.289062 987.058594 C 1047.96875 973.410156 1028.769531 966.929688 1007.359375 964.589844 C 1005.121094 964.339844 1003.121094 965.960938 1002.871094 968.191406 C 1002.628906 970.421875 1004.238281 972.429688 1006.46875 972.671875 "/>
<path fill-rule="evenodd" fill="rgb(52.929688%, 34.104919%, 15.306091%)" fill-opacity="1" d="M 697.757812 884.949219 C 692.074219 887.679688 687.796875 890.308594 684.871094 894.648438 C 682.878906 897.609375 681.476562 901.390625 680.847656 906.671875 C 680.582031 908.898438 682.175781 910.921875 684.40625 911.191406 C 686.632812 911.449219 688.65625 909.859375 688.921875 907.628906 C 690.035156 898.269531 694.425781 895.578125 701.285156 892.269531 C 703.308594 891.300781 704.15625 888.871094 703.183594 886.839844 C 702.210938 884.820312 699.777344 883.96875 697.757812 884.949219 "/>
<path fill-rule="evenodd" fill="rgb(52.929688%, 34.104919%, 15.306091%)" fill-opacity="1" d="M 1163.429688 952.261719 C 1159.789062 956.351562 1157.738281 960.53125 1157.480469 964.648438 C 1157.261719 967.941406 1158.121094 971.289062 1160.421875 974.628906 C 1158.519531 976.539062 1156.75 978.609375 1155.53125 980.761719 C 1153.96875 983.488281 1153.238281 986.359375 1153.648438 989.210938 C 1154.078125 992.199219 1155.738281 995.328125 1159.640625 998.238281 C 1161.441406 999.578125 1163.988281 999.210938 1165.328125 997.410156 C 1166.671875 995.609375 1166.300781 993.058594 1164.5 991.71875 C 1162.839844 990.480469 1161.878906 989.328125 1161.699219 988.058594 C 1161.519531 986.828125 1162.058594 985.648438 1162.769531 984.488281 C 1164.21875 982.109375 1166.539062 979.921875 1168.679688 978.011719 C 1169.511719 977.269531 1170 976.21875 1170.039062 975.109375 C 1170.078125 974 1169.660156 972.921875 1168.878906 972.121094 C 1166.558594 969.761719 1165.441406 967.511719 1165.589844 965.179688 C 1165.761719 962.640625 1167.261719 960.191406 1169.5 957.671875 C 1170.988281 955.988281 1170.839844 953.421875 1169.171875 951.929688 C 1167.488281 950.441406 1164.921875 950.589844 1163.429688 952.261719 "/>
<path fill-rule="evenodd" fill="rgb(52.929688%, 34.104919%, 15.306091%)" fill-opacity="1" d="M 1163.210938 951.5 C 1158.539062 955.839844 1154.050781 959.5 1149.550781 961.578125 C 1145.769531 963.328125 1142.011719 963.898438 1138.179688 962.398438 C 1136.089844 961.578125 1133.730469 962.621094 1132.910156 964.710938 C 1132.101562 966.800781 1133.128906 969.160156 1135.21875 969.980469 C 1141.191406 972.308594 1147.058594 971.691406 1152.960938 968.960938 C 1158.140625 966.558594 1163.378906 962.449219 1168.75 957.460938 C 1170.390625 955.921875 1170.480469 953.351562 1168.949219 951.710938 C 1167.421875 950.070312 1164.851562 949.96875 1163.210938 951.5 "/>
<path fill-rule="evenodd" fill="rgb(52.929688%, 34.104919%, 15.306091%)" fill-opacity="1" d="M 1168.761719 958.058594 C 1177.730469 958.378906 1188.230469 961.660156 1196.53125 966.269531 C 1201.75 969.179688 1206.109375 972.570312 1208.410156 976.191406 C 1209.621094 978.078125 1212.140625 978.628906 1214.03125 977.421875 C 1215.921875 976.210938 1216.480469 973.699219 1215.269531 971.808594 C 1212.371094 967.269531 1207.039062 962.820312 1200.480469 959.171875 C 1191.101562 953.949219 1179.199219 950.300781 1169.050781 949.929688 C 1166.808594 949.851562 1164.921875 951.601562 1164.839844 953.839844 C 1164.761719 956.089844 1166.511719 957.96875 1168.761719 958.058594 "/>
<path fill-rule="evenodd" fill="rgb(52.929688%, 34.104919%, 15.306091%)" fill-opacity="1" d="M 1166.351562 978.988281 C 1176.601562 980.519531 1197.960938 990.761719 1209.261719 1000.070312 C 1210.988281 1001.488281 1213.550781 1001.238281 1214.980469 999.511719 C 1216.410156 997.78125 1216.160156 995.21875 1214.429688 993.789062 C 1202.101562 983.640625 1178.730469 972.609375 1167.550781 970.949219 C 1165.328125 970.621094 1163.261719 972.160156 1162.929688 974.371094 C 1162.601562 976.589844 1164.128906 978.660156 1166.351562 978.988281 "/>
<path fill-rule="evenodd" fill="rgb(52.929688%, 34.104919%, 15.306091%)" fill-opacity="1" d="M 1162.011719 999.878906 C 1172.871094 1002.769531 1191.671875 1011.449219 1198.160156 1018.269531 C 1199.710938 1019.898438 1202.289062 1019.960938 1203.910156 1018.410156 C 1205.539062 1016.871094 1205.601562 1014.289062 1204.050781 1012.660156 C 1196.851562 1005.109375 1176.140625 995.21875 1164.089844 992.019531 C 1161.921875 991.449219 1159.691406 992.738281 1159.121094 994.910156 C 1158.539062 997.078125 1159.839844 999.308594 1162.011719 999.878906 "/>
<path fill-rule="evenodd" fill="rgb(52.929688%, 34.104919%, 15.306091%)" fill-opacity="1" d="M 1172.988281 953.929688 C 1175.378906 949.390625 1178.289062 946.421875 1181.828125 945.03125 C 1185.410156 943.621094 1189.539062 943.828125 1194.140625 945.21875 C 1201.230469 947.351562 1209.261719 952.210938 1218.121094 959.140625 C 1219.878906 960.53125 1222.441406 960.21875 1223.820312 958.449219 C 1225.210938 956.679688 1224.898438 954.121094 1223.128906 952.738281 C 1197.058594 932.320312 1176.691406 929.421875 1165.789062 950.148438 C 1164.75 952.128906 1165.511719 954.589844 1167.5 955.640625 C 1169.488281 956.679688 1171.941406 955.921875 1172.988281 953.929688 "/>
<path fill-rule="evenodd" fill="rgb(52.929688%, 34.104919%, 15.306091%)" fill-opacity="1" d="M 643.324219 454.171875 C 652.582031 501.050781 672.585938 536.609375 722.105469 540.871094 C 724.339844 541.058594 726.3125 539.398438 726.503906 537.171875 C 726.699219 534.929688 725.039062 532.960938 722.804688 532.769531 C 677.394531 528.859375 659.789062 495.578125 651.304688 452.589844 C 650.867188 450.390625 648.726562 448.960938 646.527344 449.390625 C 644.324219 449.828125 642.890625 451.96875 643.324219 454.171875 "/>
<path fill-rule="evenodd" fill="rgb(52.929688%, 34.104919%, 15.306091%)" fill-opacity="1" d="M 635.738281 385.980469 C 640.855469 389.511719 643.726562 393.488281 643.726562 397.449219 C 643.730469 401.160156 641.027344 404.398438 636.222656 406.808594 C 634.214844 407.820312 633.402344 410.261719 634.40625 412.269531 C 635.414062 414.269531 637.859375 415.089844 639.863281 414.078125 C 648.082031 409.96875 651.867188 403.78125 651.859375 397.441406 C 651.855469 391.359375 648.21875 384.710938 640.351562 379.28125 C 638.5 378.011719 635.96875 378.480469 634.695312 380.328125 C 633.421875 382.179688 633.890625 384.710938 635.738281 385.980469 "/>
<path fill-rule="evenodd" fill="rgb(26.708984%, 21.604919%, 16.50238%)" fill-opacity="1" d="M 694 385.441406 C 698.351562 378.871094 702.753906 374.308594 707.839844 373.210938 C 712.613281 372.179688 717.558594 374.628906 723.234375 380.359375 C 725.210938 382.351562 728.433594 382.359375 730.425781 380.390625 C 732.414062 378.410156 732.429688 375.191406 730.453125 373.199219 C 721.535156 364.210938 713.199219 361.660156 705.699219 363.269531 C 698.511719 364.820312 691.675781 370.539062 685.523438 379.828125 C 683.976562 382.171875 684.617188 385.320312 686.957031 386.871094 C 689.296875 388.421875 692.453125 387.78125 694 385.441406 "/>
<path fill-rule="evenodd" fill="rgb(26.708984%, 21.604919%, 16.50238%)" fill-opacity="1" d="M 766.585938 381.109375 C 771.972656 377.808594 776.660156 376.621094 780.785156 378.390625 C 785.296875 380.328125 788.804688 385.300781 791.917969 392.859375 C 792.984375 395.460938 795.957031 396.699219 798.554688 395.628906 C 801.144531 394.558594 802.386719 391.589844 801.316406 388.988281 C 796.90625 378.269531 791.199219 371.800781 784.800781 369.050781 C 778.019531 366.140625 770.128906 367.011719 761.269531 372.449219 C 758.878906 373.910156 758.128906 377.050781 759.59375 379.441406 C 761.0625 381.828125 764.195312 382.578125 766.585938 381.109375 "/>
<path fill-rule="evenodd" fill="rgb(52.929688%, 34.104919%, 15.306091%)" fill-opacity="1" d="M 747.324219 404.96875 C 747.324219 404.96875 745.824219 410.390625 745.609375 415.351562 C 745.496094 417.941406 745.765625 420.398438 746.496094 422.210938 C 747.644531 425.058594 750.800781 427.789062 754.34375 430.621094 C 755.914062 431.871094 757.550781 433.191406 758.894531 434.699219 C 760.402344 436.378906 761.570312 438.308594 761.339844 440.820312 C 761.15625 442.871094 759.671875 444.070312 758.128906 444.910156 C 754.878906 446.660156 750.996094 446.878906 750.996094 446.878906 C 748.753906 447.019531 747.046875 448.949219 747.183594 451.191406 C 747.320312 453.429688 749.25 455.140625 751.488281 455 L 761.988281 452.058594 C 765.804688 450 768.976562 446.648438 769.441406 441.550781 C 770.042969 434.929688 766.308594 430.089844 761.714844 426.148438 C 759.914062 424.609375 758.011719 423.210938 756.414062 421.828125 C 755.371094 420.921875 754.421875 420.128906 754.035156 419.171875 C 753.507812 417.859375 753.664062 415.890625 753.863281 414.011719 C 754.238281 410.460938 755.160156 407.140625 755.160156 407.140625 C 755.761719 404.980469 754.492188 402.738281 752.328125 402.140625 C 750.164062 401.539062 747.921875 402.800781 747.324219 404.96875 "/>
<path fill-rule="evenodd" fill="rgb(100%, 100%, 100%)" fill-opacity="1" d="M 709.003906 465.109375 C 708.1875 465.039062 707.382812 465.261719 706.785156 465.699219 C 706.1875 466.140625 705.847656 466.769531 705.847656 467.441406 C 705.941406 481.78125 716.015625 493.789062 729.332031 494.820312 C 742.648438 495.851562 754.445312 485.519531 756.726562 471.359375 C 756.824219 470.699219 756.589844 470.03125 756.066406 469.511719 C 755.546875 468.980469 754.789062 468.648438 753.976562 468.578125 C 747.199219 468.050781 731.488281 466.839844 731.488281 466.839844 C 731.488281 466.839844 715.78125 465.628906 709.003906 465.109375 "/>
<path fill-rule="evenodd" fill="rgb(14.501953%, 16.088867%, 19.993591%)" fill-opacity="1" d="M 712.941406 402.148438 C 716.84375 402.148438 720.015625 406.738281 720.015625 412.398438 C 720.015625 418.050781 716.84375 422.640625 712.941406 422.640625 C 709.035156 422.640625 705.863281 418.050781 705.863281 412.398438 C 705.863281 406.738281 709.035156 402.148438 712.941406 402.148438 "/>
<path fill-rule="evenodd" fill="rgb(14.501953%, 16.088867%, 19.993591%)" fill-opacity="1" d="M 780.746094 407.558594 C 784.652344 407.558594 787.820312 412.160156 787.820312 417.808594 C 787.820312 423.46875 784.652344 428.058594 780.746094 428.058594 C 776.839844 428.058594 773.671875 423.46875 773.671875 417.808594 C 773.671875 412.160156 776.839844 407.558594 780.746094 407.558594 "/>
<path fill-rule="evenodd" fill="rgb(14.109802%, 11.401367%, 8.59375%)" fill-opacity="1" d="M 611.398438 418.210938 C 604.761719 420.03125 601.996094 424.558594 600.023438 429.800781 C 598.714844 433.261719 598.011719 437.179688 595.207031 439.761719 C 593.097656 441.710938 590.425781 442.371094 588.046875 443.421875 C 584.324219 445.058594 581.085938 447.238281 579.277344 451.988281 C 577.851562 455.738281 577.800781 459.371094 577.761719 462.839844 C 577.726562 466.160156 577.84375 469.328125 574.304688 472.011719 C 572.515625 473.359375 572.15625 475.910156 573.511719 477.699219 C 574.863281 479.488281 577.414062 479.851562 579.203125 478.5 C 584.453125 474.53125 585.589844 470.121094 585.828125 465.328125 C 585.996094 462.050781 585.492188 458.519531 586.875 454.878906 C 588.011719 451.890625 590.507812 451.171875 592.90625 450.199219 C 595.621094 449.089844 598.375 447.898438 600.714844 445.738281 C 603.835938 442.871094 605.402344 438.980469 606.78125 435.039062 C 608.089844 431.308594 608.929688 427.320312 613.554688 426.050781 C 615.71875 425.449219 616.992188 423.210938 616.394531 421.050781 C 615.800781 418.878906 613.5625 417.609375 611.398438 418.210938 "/>
<path fill-rule="evenodd" fill="rgb(14.109802%, 11.401367%, 8.59375%)" fill-opacity="1" d="M 626.980469 454.289062 C 622.191406 456.980469 620.078125 459.660156 619.070312 462.121094 C 618.316406 463.949219 618.144531 465.761719 618.234375 467.601562 C 618.296875 468.851562 618.5 470.128906 618.570312 471.449219 C 618.636719 472.691406 618.546875 474.011719 617.628906 475.460938 C 616.890625 476.640625 615.804688 477.359375 614.734375 478.078125 C 613.636719 478.820312 612.523438 479.519531 611.507812 480.320312 C 609.234375 482.101562 607.402344 484.300781 606.640625 487.761719 C 606.15625 489.949219 607.546875 492.121094 609.734375 492.601562 C 611.929688 493.089844 614.101562 491.699219 614.582031 489.511719 C 615.105469 487.121094 617.046875 486.308594 618.742188 485.191406 C 620.90625 483.75 623.007812 482.179688 624.507812 479.808594 C 627.074219 475.738281 626.859375 472.230469 626.503906 468.871094 C 626.371094 467.621094 626.097656 466.421875 626.59375 465.210938 C 627.121094 463.921875 628.464844 462.78125 630.96875 461.378906 C 632.921875 460.28125 633.617188 457.800781 632.519531 455.839844 C 631.417969 453.878906 628.9375 453.191406 626.980469 454.289062 "/>
<path fill-rule="evenodd" fill="rgb(14.109802%, 11.401367%, 8.59375%)" fill-opacity="1" d="M 802.089844 480.199219 C 803.496094 481.839844 805.25 482.949219 807.121094 483.878906 C 808.742188 484.691406 810.542969 485.191406 811.773438 486.539062 C 812.609375 487.449219 812.929688 488.539062 813.261719 489.578125 C 813.644531 490.769531 813.988281 491.941406 814.46875 493.039062 C 815.566406 495.53125 817.234375 497.710938 820.699219 499.109375 C 822.78125 499.949219 825.152344 498.949219 825.996094 496.871094 C 826.839844 494.789062 825.835938 492.421875 823.757812 491.570312 C 821.816406 490.789062 821.652344 489.160156 821.183594 487.660156 C 820.472656 485.371094 819.621094 483.070312 817.773438 481.050781 C 816.371094 479.519531 814.636719 478.480469 812.789062 477.578125 C 811.210938 476.808594 809.457031 476.300781 808.269531 474.910156 C 806.8125 473.210938 804.246094 473.011719 802.539062 474.460938 C 800.832031 475.921875 800.632812 478.488281 802.089844 480.199219 "/>
<path fill-rule="evenodd" fill="rgb(14.109802%, 11.401367%, 8.59375%)" fill-opacity="1" d="M 815.867188 452.101562 C 816.03125 454.941406 816.769531 457.328125 818.480469 459.640625 C 819.96875 461.648438 821.847656 463.050781 823.820312 464.328125 C 825.144531 465.191406 826.53125 465.96875 827.664062 467.128906 C 829.320312 468.808594 829.824219 470.679688 830.65625 472.328125 C 832.054688 475.101562 833.863281 477.578125 838.234375 479.289062 C 840.324219 480.109375 842.683594 479.070312 843.5 476.980469 C 844.316406 474.890625 843.28125 472.53125 841.191406 471.710938 C 838.75 470.761719 838.140625 469.179688 837.394531 467.570312 C 836.457031 465.539062 835.441406 463.441406 833.472656 461.429688 C 832.179688 460.109375 830.699219 459.089844 829.1875 458.109375 C 827.699219 457.148438 826.128906 456.308594 825.011719 454.800781 C 824.296875 453.839844 824.054688 452.808594 823.984375 451.628906 C 823.855469 449.390625 821.933594 447.671875 819.691406 447.800781 C 817.449219 447.929688 815.738281 449.859375 815.867188 452.101562 "/>
<path fill-rule="evenodd" fill="rgb(14.109802%, 11.401367%, 8.59375%)" fill-opacity="1" d="M 728.816406 263.808594 C 733.808594 279.839844 734.949219 294.609375 733.535156 308.550781 C 733.308594 310.78125 734.9375 312.78125 737.171875 313 C 739.402344 313.230469 741.398438 311.601562 741.625 309.371094 C 743.140625 294.421875 741.933594 278.578125 736.582031 261.398438 C 735.914062 259.25 733.636719 258.058594 731.492188 258.71875 C 729.347656 259.390625 728.152344 261.671875 728.816406 263.808594 "/>
<path fill-rule="evenodd" fill="rgb(76.5625%, 47.801208%, 28.588867%)" fill-opacity="1" d="M 1393.980469 952.121094 C 1406.070312 954.640625 1417.601562 953.359375 1428.589844 948.429688 C 1448.621094 951.308594 1464.480469 948.929688 1477.480469 943.058594 C 1479.53125 942.128906 1480.441406 939.71875 1479.511719 937.679688 C 1478.589844 935.628906 1476.179688 934.71875 1474.128906 935.648438 C 1462.089844 941.089844 1447.320312 943.078125 1428.609375 940.210938 C 1427.800781 940.089844 1426.980469 940.210938 1426.25 940.558594 C 1416.550781 945.148438 1406.359375 946.390625 1395.640625 944.160156 C 1393.441406 943.699219 1391.289062 945.109375 1390.828125 947.308594 C 1390.371094 949.5 1391.78125 951.660156 1393.980469 952.121094 "/>
<path fill-rule="evenodd" fill="rgb(76.5625%, 47.801208%, 28.588867%)" fill-opacity="1" d="M 1551.328125 851.511719 C 1536.578125 855.558594 1528.710938 865.300781 1528.449219 873.941406 C 1528.25 880.230469 1531.710938 886.460938 1539.941406 890.339844 C 1541.96875 891.289062 1544.398438 890.421875 1545.351562 888.390625 C 1546.308594 886.359375 1545.441406 883.941406 1543.410156 882.980469 C 1538.828125 880.820312 1536.46875 877.691406 1536.578125 874.191406 C 1536.761719 868.121094 1543.128906 862.191406 1553.488281 859.351562 C 1555.648438 858.761719 1556.929688 856.519531 1556.328125 854.359375 C 1555.738281 852.191406 1553.5 850.921875 1551.328125 851.511719 "/>
<path fill-rule="evenodd" fill="rgb(76.5625%, 47.801208%, 28.588867%)" fill-opacity="1" d="M 1416.371094 817.460938 C 1415.308594 818.101562 1413.550781 818.460938 1411.511719 818.898438 C 1407.289062 819.800781 1402.050781 820.621094 1397.46875 822.078125 C 1391.03125 824.109375 1385.980469 827.578125 1384.539062 832.898438 C 1383.839844 835.511719 1384.71875 838.648438 1386.898438 841.570312 C 1390.351562 846.191406 1396.988281 850.550781 1396.988281 850.550781 C 1398.871094 851.769531 1401.390625 851.230469 1402.609375 849.351562 C 1403.839844 847.46875 1403.300781 844.949219 1401.421875 843.730469 C 1401.421875 843.730469 1397.480469 841.171875 1394.601562 838.101562 C 1393.949219 837.398438 1393.351562 836.679688 1392.910156 835.949219 C 1392.710938 835.621094 1392.488281 835.050781 1392.429688 834.890625 C 1392.878906 833.441406 1394.109375 832.460938 1395.570312 831.628906 C 1397.800781 830.378906 1400.601562 829.539062 1403.46875 828.859375 C 1407.378906 827.929688 1411.410156 827.289062 1414.621094 826.539062 C 1417.320312 825.898438 1419.519531 825.121094 1420.941406 824.191406 C 1422.300781 823.308594 1423.519531 821.699219 1424.359375 819.71875 C 1425.699219 816.558594 1426.179688 812.449219 1426.179688 812.449219 C 1426.421875 810.21875 1424.808594 808.210938 1422.578125 807.960938 C 1420.351562 807.71875 1418.339844 809.328125 1418.089844 811.558594 C 1418.089844 811.558594 1417.859375 813.679688 1417.199219 815.679688 C 1416.988281 816.289062 1416.480469 817.261719 1416.371094 817.460938 "/>
<path fill-rule="evenodd" fill="rgb(76.5625%, 47.801208%, 28.588867%)" fill-opacity="1" d="M 1443.539062 821.699219 C 1444.191406 824.539062 1446.011719 827.589844 1449.039062 830.671875 C 1452.820312 834.53125 1458.628906 838.628906 1465.96875 842.859375 C 1467.921875 843.96875 1470.410156 843.300781 1471.53125 841.359375 C 1472.640625 839.410156 1471.96875 836.921875 1470.03125 835.808594 C 1463.460938 832.03125 1458.230469 828.429688 1454.839844 824.980469 C 1453.089844 823.191406 1451.851562 821.53125 1451.46875 819.878906 C 1450.96875 817.691406 1448.789062 816.320312 1446.601562 816.820312 C 1444.410156 817.328125 1443.039062 819.511719 1443.539062 821.699219 "/>
<path fill-rule="evenodd" fill="rgb(76.5625%, 47.801208%, 28.588867%)" fill-opacity="1" d="M 1407.019531 805.328125 C 1401.488281 809.449219 1394.691406 810.699219 1387.398438 810.871094 C 1385.160156 810.921875 1383.378906 812.78125 1383.429688 815.019531 C 1383.480469 817.269531 1385.339844 819.050781 1387.589844 819 C 1396.640625 818.789062 1405.011719 816.96875 1411.878906 811.851562 C 1413.679688 810.511719 1414.050781 807.960938 1412.710938 806.160156 C 1411.371094 804.359375 1408.820312 803.988281 1407.019531 805.328125 "/>
<path fill-rule="evenodd" fill="rgb(50.584412%, 53.318787%, 53.318787%)" fill-opacity="1" d="M 1425.039062 773.871094 C 1411.390625 766.488281 1396.328125 768.800781 1380.199219 780.019531 C 1377.890625 781.621094 1377.328125 784.789062 1378.929688 787.101562 C 1380.53125 789.398438 1383.699219 789.96875 1386 788.371094 C 1398.351562 779.769531 1409.761719 777.160156 1420.199219 782.808594 C 1422.671875 784.140625 1425.761719 783.21875 1427.089844 780.761719 C 1428.429688 778.289062 1427.511719 775.199219 1425.039062 773.871094 "/>
<path fill-rule="evenodd" fill="rgb(50.584412%, 53.318787%, 53.318787%)" fill-opacity="1" d="M 1457.960938 791.710938 C 1472.429688 792.511719 1480.960938 804.128906 1486.578125 821.839844 C 1487.421875 824.511719 1490.28125 825.988281 1492.960938 825.140625 C 1495.628906 824.300781 1497.109375 821.441406 1496.269531 818.761719 C 1489.109375 796.179688 1476.980469 782.578125 1458.519531 781.558594 C 1455.71875 781.398438 1453.320312 783.550781 1453.171875 786.351562 C 1453.011719 789.148438 1455.160156 791.550781 1457.960938 791.710938 "/>
<path fill-rule="evenodd" fill="rgb(76.5625%, 47.801208%, 28.588867%)" fill-opacity="1" d="M 1438.328125 866.371094 C 1449.289062 872 1456.488281 881.261719 1459.648438 894.441406 C 1460.179688 896.621094 1462.371094 897.96875 1464.558594 897.441406 C 1466.738281 896.921875 1468.089844 894.71875 1467.558594 892.539062 C 1463.789062 876.820312 1455.121094 865.851562 1442.039062 859.128906 C 1440.050781 858.109375 1437.601562 858.898438 1436.570312 860.890625 C 1435.539062 862.890625 1436.328125 865.339844 1438.328125 866.371094 "/>
<path fill-rule="evenodd" fill="rgb(76.5625%, 47.801208%, 28.588867%)" fill-opacity="1" d="M 1381.828125 849.539062 C 1377.691406 854.929688 1372.058594 857.289062 1366.011719 858.808594 C 1363.839844 859.351562 1362.511719 861.558594 1363.058594 863.738281 C 1363.601562 865.910156 1365.808594 867.238281 1367.988281 866.691406 C 1375.800781 864.738281 1382.941406 861.449219 1388.28125 854.488281 C 1389.640625 852.710938 1389.308594 850.148438 1387.53125 848.789062 C 1385.738281 847.421875 1383.191406 847.761719 1381.828125 849.539062 "/>
<path fill-rule="evenodd" fill="rgb(100%, 100%, 100%)" fill-opacity="1" d="M 1400.179688 867.628906 C 1423.871094 875.878906 1448.128906 884.601562 1446.039062 888.121094 C 1426.839844 920.480469 1396.621094 898.660156 1400.179688 867.628906 "/>
<path fill-rule="evenodd" fill="rgb(76.5625%, 47.801208%, 28.588867%)" fill-opacity="1" d="M 1501.941406 835.460938 L 1486.808594 830.578125 C 1485.320312 830.101562 1483.691406 830.519531 1482.609375 831.660156 C 1481.53125 832.800781 1481.210938 834.460938 1481.769531 835.921875 L 1487.628906 851.039062 C 1488.441406 853.140625 1490.789062 854.179688 1492.890625 853.371094 C 1494.980469 852.558594 1496.019531 850.199219 1495.210938 848.109375 L 1492.441406 840.941406 L 1499.441406 843.199219 C 1501.578125 843.890625 1503.871094 842.710938 1504.558594 840.578125 C 1505.25 838.441406 1504.070312 836.148438 1501.941406 835.460938 "/>
<path fill-rule="evenodd" fill="rgb(76.5625%, 47.801208%, 28.588867%)" fill-opacity="1" d="M 1364.878906 798.890625 L 1368.820312 801.289062 L 1364.398438 804.980469 C 1362.671875 806.410156 1362.441406 808.980469 1363.878906 810.699219 C 1365.308594 812.429688 1367.878906 812.660156 1369.601562 811.230469 L 1378.390625 803.910156 C 1379.390625 803.070312 1379.929688 801.789062 1379.839844 800.488281 C 1379.738281 799.179688 1379.019531 798 1377.898438 797.308594 L 1369.121094 791.949219 C 1367.210938 790.78125 1364.699219 791.378906 1363.53125 793.300781 C 1362.359375 795.210938 1362.960938 797.71875 1364.878906 798.890625 "/>
<path fill-rule="evenodd" fill="rgb(74.804688%, 50.584412%, 8.203125%)" fill-opacity="1" d="M 1227.601562 1292.550781 C 1277.71875 1309.78125 1330.480469 1306.339844 1386.421875 1277.691406 C 1388 1276.878906 1388.871094 1275.128906 1388.570312 1273.378906 C 1388.570312 1273.378906 1371.738281 1175.78125 1371.058594 1134.941406 C 1371.03125 1132.699219 1369.179688 1130.910156 1366.929688 1130.941406 C 1364.691406 1130.980469 1362.898438 1132.828125 1362.929688 1135.078125 C 1363.539062 1172.03125 1377.238281 1255.070312 1380.050781 1271.789062 C 1327.339844 1298.058594 1277.570312 1301.121094 1230.238281 1284.859375 C 1228.121094 1284.128906 1225.800781 1285.261719 1225.070312 1287.378906 C 1224.339844 1289.511719 1225.46875 1291.820312 1227.601562 1292.550781 "/>
<path fill-rule="evenodd" fill="rgb(74.804688%, 50.584412%, 8.203125%)" fill-opacity="1" d="M 1533.460938 1110.019531 C 1533.460938 1110.019531 1552.25 1136.910156 1552.25 1172.089844 C 1552.25 1188.609375 1547.058594 1197.691406 1542.070312 1205.789062 C 1538.308594 1211.878906 1534.691406 1217.511719 1532.851562 1224.769531 C 1531.328125 1230.808594 1532.730469 1346.328125 1532.730469 1346.328125 C 1532.761719 1348.578125 1534.609375 1350.378906 1536.851562 1350.351562 C 1539.089844 1350.320312 1540.890625 1348.46875 1540.859375 1346.230469 C 1540.859375 1346.230469 1539.238281 1232.699219 1540.738281 1226.761719 C 1542.359375 1220.351562 1545.671875 1215.441406 1548.988281 1210.058594 C 1554.609375 1200.941406 1560.378906 1190.699219 1560.378906 1172.089844 C 1560.378906 1134.25 1540.128906 1105.359375 1540.128906 1105.359375 C 1538.839844 1103.519531 1536.300781 1103.070312 1534.460938 1104.359375 C 1532.628906 1105.640625 1532.179688 1108.179688 1533.460938 1110.019531 "/>
<path fill-rule="evenodd" fill="rgb(74.804688%, 50.584412%, 8.203125%)" fill-opacity="1" d="M 1363.820312 994.089844 C 1363.820312 994.089844 1394.46875 1032.570312 1419.410156 1055.199219 C 1426.039062 1061.21875 1432.300781 1066.140625 1437.519531 1069.039062 C 1441.710938 1071.371094 1445.410156 1072.421875 1448.269531 1072.21875 C 1451.429688 1072.011719 1454.601562 1070.339844 1457.53125 1067.238281 C 1460.949219 1063.628906 1464.21875 1057.871094 1467.160156 1050.941406 C 1477.839844 1025.710938 1484.699219 984.421875 1484.699219 984.421875 C 1485.058594 982.199219 1483.558594 980.109375 1481.351562 979.738281 C 1479.140625 979.378906 1477.039062 980.878906 1476.671875 983.089844 C 1476.671875 983.089844 1470.058594 1023.238281 1459.671875 1047.769531 C 1457.570312 1052.730469 1455.328125 1057.03125 1452.929688 1060.121094 C 1451.210938 1062.328125 1449.609375 1063.980469 1447.710938 1064.109375 C 1446.03125 1064.21875 1443.941406 1063.308594 1441.46875 1061.929688 C 1436.679688 1059.269531 1430.96875 1054.710938 1424.878906 1049.179688 C 1400.328125 1026.898438 1370.179688 989.03125 1370.179688 989.03125 C 1368.78125 987.269531 1366.21875 986.980469 1364.46875 988.378906 C 1362.710938 989.78125 1362.421875 992.339844 1363.820312 994.089844 "/>
<path fill-rule="evenodd" fill="rgb(76.5625%, 47.801208%, 28.588867%)" fill-opacity="1" d="M 1610.980469 1442.5 C 1612.160156 1438.179688 1614.628906 1435.238281 1618.828125 1434.128906 C 1621 1433.558594 1622.289062 1431.328125 1621.71875 1429.160156 C 1621.148438 1426.988281 1618.921875 1425.699219 1616.75 1426.269531 C 1609.578125 1428.171875 1605.148438 1432.980469 1603.140625 1440.351562 C 1602.539062 1442.519531 1603.820312 1444.761719 1605.988281 1445.351562 C 1608.148438 1445.941406 1610.390625 1444.660156 1610.980469 1442.5 "/>
<path fill-rule="evenodd" fill="rgb(76.5625%, 37.988281%, 14.109802%)" fill-opacity="1" d="M 1371.898438 1323.300781 C 1367.871094 1324.269531 1361.5 1328.058594 1355.800781 1332.460938 C 1350.078125 1336.871094 1345.058594 1341.871094 1343.441406 1344.800781 C 1342.351562 1346.769531 1343.058594 1349.238281 1345.03125 1350.328125 C 1346.988281 1351.410156 1349.46875 1350.699219 1350.550781 1348.730469 C 1351.871094 1346.351562 1356.121094 1342.480469 1360.761719 1338.898438 C 1365.429688 1335.308594 1370.511719 1332 1373.808594 1331.210938 C 1375.988281 1330.679688 1377.328125 1328.480469 1376.808594 1326.300781 C 1376.28125 1324.121094 1374.078125 1322.769531 1371.898438 1323.300781 "/>
<path fill-rule="evenodd" fill="rgb(76.5625%, 47.801208%, 28.588867%)" fill-opacity="1" d="M 1907.839844 1397.761719 C 1907.410156 1399.46875 1906.109375 1400.488281 1904.480469 1401.148438 C 1902.660156 1401.878906 1900.480469 1402.210938 1898.179688 1402.328125 C 1888.359375 1402.851562 1876.53125 1399.460938 1876.53125 1399.460938 C 1874.371094 1398.839844 1872.121094 1400.101562 1871.5 1402.261719 C 1870.890625 1404.410156 1872.140625 1406.660156 1874.300781 1407.28125 C 1874.300781 1407.28125 1892.640625 1412.371094 1904.261719 1409.699219 C 1910.738281 1408.210938 1915.339844 1404.550781 1916.050781 1397.949219 C 1916.191406 1396.679688 1915.929688 1395.300781 1915.089844 1393.878906 C 1914.109375 1392.21875 1911.96875 1390.25 1908.808594 1388.289062 C 1894.75 1379.558594 1857.398438 1367.828125 1846.691406 1363.488281 C 1841.621094 1361.441406 1832.191406 1357.210938 1832.191406 1357.210938 C 1830.140625 1356.289062 1827.730469 1357.210938 1826.808594 1359.25 C 1825.898438 1361.300781 1826.808594 1363.710938 1828.859375 1364.628906 C 1828.859375 1364.628906 1838.46875 1368.941406 1843.640625 1371.03125 C 1852.871094 1374.769531 1882.21875 1384.019531 1898.691406 1392.039062 C 1901.941406 1393.628906 1904.671875 1395.140625 1906.539062 1396.558594 C 1907.011719 1396.921875 1907.539062 1397.449219 1907.839844 1397.761719 "/>
<path fill-rule="evenodd" fill="rgb(76.5625%, 47.801208%, 28.588867%)" fill-opacity="1" d="M 1809.511719 1384.660156 C 1804.28125 1381.859375 1802.28125 1377.378906 1802.859375 1371.558594 C 1803.078125 1369.328125 1801.441406 1367.339844 1799.210938 1367.121094 C 1796.980469 1366.898438 1794.980469 1368.53125 1794.761719 1370.761719 C 1793.839844 1380.160156 1797.21875 1387.308594 1805.679688 1391.828125 C 1807.660156 1392.878906 1810.121094 1392.140625 1811.179688 1390.160156 C 1812.238281 1388.179688 1811.488281 1385.710938 1809.511719 1384.660156 "/>
<path fill-rule="evenodd" fill="rgb(76.5625%, 47.801208%, 28.588867%)" fill-opacity="1" d="M 1591.871094 1309.328125 C 1583.78125 1312.621094 1577.378906 1317.429688 1572.949219 1324 C 1571.691406 1325.859375 1572.179688 1328.390625 1574.039062 1329.640625 C 1575.898438 1330.898438 1578.429688 1330.410156 1579.691406 1328.550781 C 1583.238281 1323.289062 1588.441406 1319.5 1594.929688 1316.871094 C 1597 1316.019531 1598.011719 1313.648438 1597.160156 1311.570312 C 1596.320312 1309.488281 1593.941406 1308.488281 1591.871094 1309.328125 "/>
<path fill-rule="evenodd" fill="rgb(76.5625%, 47.801208%, 28.588867%)" fill-opacity="1" d="M 1372.238281 1331.269531 C 1372.238281 1331.269531 1608.410156 1367.238281 1627.089844 1371.699219 C 1633.898438 1373.328125 1652.140625 1382.148438 1652.140625 1382.148438 C 1654.160156 1383.121094 1656.589844 1382.269531 1657.558594 1380.238281 C 1658.539062 1378.21875 1657.679688 1375.789062 1655.660156 1374.820312 C 1655.660156 1374.820312 1636.230469 1365.53125 1628.980469 1363.789062 C 1610.261719 1359.320312 1373.46875 1323.230469 1373.46875 1323.230469 C 1371.25 1322.890625 1369.171875 1324.421875 1368.839844 1326.640625 C 1368.5 1328.859375 1370.019531 1330.929688 1372.238281 1331.269531 "/>
<path fill-rule="evenodd" fill="rgb(41.209412%, 43.896484%, 43.896484%)" fill-opacity="1" d="M 1529.871094 765.621094 C 1534.558594 753.191406 1540.410156 744.761719 1549.640625 737.058594 C 1551.371094 735.628906 1551.601562 733.058594 1550.171875 731.339844 C 1548.730469 729.609375 1546.160156 729.378906 1544.441406 730.808594 C 1534.101562 739.429688 1527.511719 748.828125 1522.261719 762.761719 C 1521.460938 764.859375 1522.53125 767.199219 1524.628906 767.988281 C 1526.730469 768.789062 1529.078125 767.71875 1529.871094 765.621094 "/>
<path fill-rule="evenodd" fill="rgb(76.171875%, 77.539062%, 77.539062%)" fill-opacity="1" d="M 1531.078125 721.128906 C 1526.421875 717.871094 1522.78125 713.410156 1518.289062 709.929688 C 1503.441406 698.421875 1487.160156 688.949219 1468.210938 686.621094 C 1465.429688 686.269531 1462.890625 688.261719 1462.550781 691.039062 C 1462.199219 693.820312 1464.191406 696.359375 1466.96875 696.710938 C 1484.070312 698.808594 1498.660156 707.578125 1512.070312 717.96875 C 1516.691406 721.539062 1520.460938 726.101562 1525.25 729.449219 C 1527.539062 731.058594 1530.71875 730.5 1532.328125 728.199219 C 1533.929688 725.910156 1533.371094 722.730469 1531.078125 721.128906 "/>
<path fill-rule="evenodd" fill="rgb(76.171875%, 77.539062%, 77.539062%)" fill-opacity="1" d="M 1515.769531 734.101562 C 1485.988281 715.929688 1459.941406 706.421875 1425 706.25 C 1422.199219 706.238281 1419.910156 708.511719 1419.890625 711.308594 C 1419.878906 714.121094 1422.148438 716.410156 1424.949219 716.421875 C 1457.890625 716.570312 1482.398438 725.648438 1510.480469 742.78125 C 1512.871094 744.230469 1516 743.480469 1517.460938 741.078125 C 1518.921875 738.691406 1518.160156 735.558594 1515.769531 734.101562 "/>
<path fill-rule="evenodd" fill="rgb(76.171875%, 77.539062%, 77.539062%)" fill-opacity="1" d="M 1499.011719 751.53125 C 1475.421875 756.058594 1443.328125 755.25 1420.921875 746.378906 C 1418.308594 745.351562 1415.351562 746.621094 1414.320312 749.230469 C 1413.289062 751.839844 1414.570312 754.800781 1417.179688 755.828125 C 1441.210938 765.339844 1475.628906 766.378906 1500.929688 761.511719 C 1503.691406 760.980469 1505.488281 758.308594 1504.960938 755.558594 C 1504.441406 752.808594 1501.769531 751 1499.011719 751.53125 "/>
<path fill-rule="evenodd" fill="rgb(76.171875%, 77.539062%, 77.539062%)" fill-opacity="1" d="M 1554.011719 751.410156 C 1574.550781 766.441406 1590.699219 793.328125 1580.878906 818.921875 C 1579.878906 821.539062 1581.191406 824.480469 1583.800781 825.488281 C 1586.421875 826.488281 1589.371094 825.191406 1590.371094 822.570312 C 1601.851562 792.640625 1584.03125 760.769531 1560.011719 743.210938 C 1557.738281 741.550781 1554.558594 742.050781 1552.898438 744.308594 C 1551.25 746.570312 1551.738281 749.761719 1554.011719 751.410156 "/>
<path fill-rule="evenodd" fill="rgb(76.171875%, 77.539062%, 77.539062%)" fill-opacity="1" d="M 1541.691406 774.53125 C 1553.671875 788.058594 1559.25 803.328125 1554.25 821.230469 C 1553.488281 823.929688 1555.070312 826.738281 1557.769531 827.488281 C 1560.46875 828.25 1563.28125 826.671875 1564.039062 823.96875 C 1570.050781 802.480469 1563.691406 784.039062 1549.308594 767.789062 C 1547.449219 765.691406 1544.230469 765.5 1542.128906 767.359375 C 1540.03125 769.210938 1539.839844 772.429688 1541.691406 774.53125 "/>
<path fill-rule="evenodd" fill="rgb(76.171875%, 77.539062%, 77.539062%)" fill-opacity="1" d="M 1557.519531 906.101562 C 1556.628906 919.019531 1559.128906 931.398438 1564.769531 943.050781 C 1565.988281 945.570312 1569.03125 946.628906 1571.558594 945.410156 C 1574.078125 944.191406 1575.140625 941.140625 1573.921875 938.621094 C 1569.058594 928.589844 1566.890625 917.929688 1567.660156 906.800781 C 1567.859375 904.011719 1565.738281 901.570312 1562.941406 901.378906 C 1560.140625 901.191406 1557.71875 903.300781 1557.519531 906.101562 "/>
<path fill-rule="evenodd" fill="rgb(76.171875%, 77.539062%, 77.539062%)" fill-opacity="1" d="M 1520.691406 917.378906 C 1520.539062 932.488281 1522.980469 949.328125 1537.050781 957.820312 C 1539.460938 959.269531 1542.578125 958.488281 1544.03125 956.089844 C 1545.480469 953.691406 1544.710938 950.558594 1542.300781 949.109375 C 1531.449219 942.570312 1530.738281 929.140625 1530.859375 917.488281 C 1530.890625 914.679688 1528.640625 912.378906 1525.828125 912.351562 C 1523.03125 912.320312 1520.730469 914.570312 1520.691406 917.378906 "/>
<path fill-rule="evenodd" fill="rgb(100%, 100%, 100%)" fill-opacity="1" d="M 1918.648438 1952.925781 C 1945.710938 1954.167969 1968.078125 1955.816406 1984.578125 1959.554688 C 1994.871094 1961.890625 2002.78125 1964.960938 2007.871094 1969.472656 C 2009.550781 1970.960938 2012.121094 1970.804688 2013.609375 1969.128906 C 2015.101562 1967.445312 2014.941406 1964.875 2013.269531 1963.386719 C 2007.371094 1958.15625 1998.308594 1954.332031 1986.378906 1951.625 C 1969.519531 1947.804688 1946.671875 1946.070312 1919.03125 1944.800781 C 1916.78125 1944.699219 1914.878906 1946.4375 1914.78125 1948.679688 C 1914.679688 1950.921875 1916.410156 1952.824219 1918.648438 1952.925781 "/>
</svg>
